HIERARCHY
ROOT Hips
{
  OFFSET 58.0583 97.024 27.2003
  CHANNELS 6 Xposition Yposition Zposition Zrotation Xrotation Yrotation
  JOINT spine
  {
    OFFSET 0 7.96568 0.458067
    CHANNELS 3 Zrotation Xrotation Yrotation
    JOINT spine1
    {
      OFFSET 0 10.2431 0
      CHANNELS 3 Zrotation Xrotation Yrotation
      JOINT spine2
      {
        OFFSET 0 9.81475 0
        CHANNELS 3 Zrotation Xrotation Yrotation
        JOINT Neck
        {
          OFFSET 0 25.1986 1.20138
          CHANNELS 3 Zrotation Xrotation Yrotation
          JOINT Head
          {
            OFFSET 0 7.61315 0
            CHANNELS 3 Zrotation Xrotation Yrotation
            End Site
            {
              OFFSET 0 18.4281 -6.07733
            }
          }
        }
        JOINT RightShoulder
        {
          OFFSET -4.1327 10.5992 -0.575451
          CHANNELS 3 Zrotation Xrotation Yrotation
          JOINT RightArm
          {
            OFFSET 0 13.9018 0
            CHANNELS 3 Zrotation Xrotation Yrotation
            JOINT RightArmRoll
            {
              OFFSET 0 7.01788 0
              CHANNELS 3 Zrotation Xrotation Yrotation
              JOINT RightForeArm
              {
                OFFSET 0 20.4406 0
                CHANNELS 3 Zrotation Xrotation Yrotation
                JOINT RightForeArmRoll
                {
                  OFFSET 0 7.87516 0
                  CHANNELS 3 Zrotation Xrotation Yrotation
                  JOINT RightHand
                  {
                    OFFSET 0 15.8037 0
                    CHANNELS 3 Zrotation Xrotation Yrotation
                    End Site
                    {
                      OFFSET 0 0 0
                    }
                  }
                }
              }
            }
          }
        }
        JOINT LeftShoulder
        {
          OFFSET 4.1327 10.5992 -0.575451
          CHANNELS 3 Zrotation Xrotation Yrotation
          JOINT LeftArm
          {
            OFFSET 0 13.9018 0
            CHANNELS 3 Zrotation Xrotation Yrotation
            JOINT LeftArmRoll
            {
              OFFSET 0 7.01789 0
              CHANNELS 3 Zrotation Xrotation Yrotation
              JOINT LeftForeArm
              {
                OFFSET 0 20.4406 0
                CHANNELS 3 Zrotation Xrotation Yrotation
                JOINT LeftForeArmRoll
                {
                  OFFSET 0 7.87516 0
                  CHANNELS 3 Zrotation Xrotation Yrotation
                  JOINT LeftHand
                  {
                    OFFSET 0 15.8037 0
                    CHANNELS 3 Zrotation Xrotation Yrotation
                    End Site
                    {
                      OFFSET 0 0 0
                    }
                  }
                }
              }
            }
          }
        }
      }
    }
  }
  JOINT RightUpLeg
  {
    OFFSET -7.06048 -1.2947 -1.0861
    CHANNELS 3 Zrotation Xrotation Yrotation
    JOINT RightUpLegRoll
    {
      OFFSET 0 18.5308 0
      CHANNELS 3 Zrotation Xrotation Yrotation
      JOINT RightLeg
      {
        OFFSET 0 -22.9476 0
        CHANNELS 3 Zrotation Xrotation Yrotation
        JOINT RightLegRoll
        {
          OFFSET 0 23.0226 0
          CHANNELS 3 Zrotation Xrotation Yrotation
          JOINT RightFoot
          {
            OFFSET 0 19.1625 0
            CHANNELS 3 Zrotation Xrotation Yrotation
            JOINT RightToeBase
            {
              OFFSET 0 16.0188 0
              CHANNELS 3 Zrotation Xrotation Yrotation
              End Site
              {
                OFFSET 0.00678979 7.75782 -0.894206
              }
            }
          }
        }
      }
    }
  }
  JOINT LeftUpLeg
  {
    OFFSET 7.06048 -1.2947 -1.0861
    CHANNELS 3 Zrotation Xrotation Yrotation
    JOINT LeftUpLegRoll
    {
      OFFSET 0 18.5309 0
      CHANNELS 3 Zrotation Xrotation Yrotation
      JOINT LeftLeg
      {
        OFFSET 0 22.9475 0
        CHANNELS 3 Zrotation Xrotation Yrotation
        JOINT LeftLegRoll
        {
          OFFSET 0 23.2355 0
          CHANNELS 3 Zrotation Xrotation Yrotation
          JOINT LeftFoot
          {
            OFFSET 0 18.9496 0
            CHANNELS 3 Zrotation Xrotation Yrotation
            JOINT LeftToeBase
            {
              OFFSET 0 16.0188 0
              CHANNELS 3 Zrotation Xrotation Yrotation
              End Site
              {
                OFFSET -0.0304289 7.75782 -0.894206
              }
            }
          }
        }
      }
    }
  }
}
MOTION
Frames: 10
Frame Time: 0.00208333
57.8067 97.002 25.6015 -1.84295 -4.05856 4.18663 -0.0901895 -0.557963 -0.557803 -0.180543 2.88786 -1.1084 -0.167438 4.5328 -1.10634 7.51749 -1.75141 0.176097 -2.54237 20.1062 1.48863 39.8011 -14.7986 -10.4511 60.6708 28.2774 41.158 1.59028e-015 1.43125e-014 9.54166e-015 -5.78775 5.98167 -0.427828 -2.71202e-005 -4.22651e-007 -3.00629 8.03024 -4.95135 0.697618 -61.3795 2.23406 -0.968559 -109.396 20.1737 4.3298 2.35097e-005 2.03171e-006 8.05029e-007 -12.1638 9.22294 1.57642 -1.14e-005 2.0855e-006 3 -8.02976 -4.95144 -0.697647 178.277 -3.6284 2.76246 180 7.01522e-015 178.821 177.765 3.71153 179.759 3.99226e-006 -3.03929e-006 0.0413372 -18.8 67.9843 19.5217 8.13649 25.2327 -3.48774 -171.934 -1.10114 -3.66238 4.5067e-006 -1.99009e-005 -1.09867 -2.36261 -10.2071 0.0503563 -8.8353e-007 2.87672e-007 -0.212043 20.8444 70.3523 -21.7315 -8.13649 25.2327 3.48774 
57.8218 97.0038 25.6115 -1.84595 -4.08428 4.14282 -0.0891451 -0.555291 -0.560805 -0.178398 2.8932 -1.1142 -0.165221 4.53814 -1.11218 7.47695 -1.65071 0.186781 -2.54966 20.0971 1.50089 40.0074 -14.7664 -10.4078 60.9785 28.2036 40.7083 3.18055e-015 7.95139e-015 6.36111e-015 -5.56166 5.62141 -0.473363 -2.71202e-005 -4.22651e-007 -3.0063 8.03024 -4.95135 0.697618 -61.3578 2.23286 -0.97101 -109.378 20.1651 4.27942 2.35097e-005 2.03171e-006 8.05029e-007 -12.1383 9.15081 1.56619 -1.14e-005 2.0855e-006 3 -8.02976 -4.95144 -0.697647 178.273 -3.64948 2.77303 180 7.01522e-015 178.821 177.757 3.71573 179.76 3.99226e-006 -3.03929e-006 0.041326 -18.7993 67.9833 19.5208 8.13649 25.2327 -3.48774 -171.933 -1.13999 -3.66647 4.5067e-006 -1.99009e-005 -1.09905 -2.3641 -10.2077 0.05022 -8.8353e-007 2.87672e-007 -0.212264 20.8458 70.3536 -21.7328 -8.13649 25.2327 3.48774 
57.8127 97.0101 25.6037 -1.85061 -4.10676 4.09935 -0.0878266 -0.55317 -0.563852 -0.175749 2.89743 -1.11994 -0.1625 4.54237 -1.11798 7.43798 -1.55554 0.197721 -2.55929 20.0935 1.51347 40.2173 -14.7335 -10.3639 61.2795 28.1235 40.2447 1.59028e-015 3.18055e-015 6.36111e-015 -5.3175 5.27331 -0.515424 -2.71202e-005 -4.22651e-007 -3.0063 8.03024 -4.95135 0.697618 -61.3341 2.22896 -0.972173 -109.362 20.1592 4.23278 2.35097e-005 2.03171e-006 8.05029e-007 -12.1148 9.07675 1.55579 -1.14e-005 2.0855e-006 3 -8.02976 -4.95144 -0.697647 178.27 -3.66659 2.78176 180 7.01522e-015 178.821 177.75 3.72035 179.76 3.99226e-006 -3.03929e-006 0.0413149 -18.7986 67.9823 19.52 8.13649 25.2327 -3.48774 -171.931 -1.17478 -3.67179 4.5067e-006 -1.99009e-005 -1.09945 -2.36601 -10.2081 0.0500441 -8.8353e-007 2.87672e-007 -0.212484 20.8461 70.3539 -21.733 -8.13649 25.2327 3.48774 
57.7886 97.0076 25.624 -1.85645 -4.12667 4.0559 -0.0863282 -0.551476 -0.567 -0.172766 2.90081 -1.1257 -0.159444 4.54575 -1.12379 7.39904 -1.46498 0.209178 -2.56978 20.0944 1.52634 40.4303 -14.6995 -10.319 61.5755 28.038 39.7599 4.77083e-015 -1.59028e-014 6.36111e-015 -5.04863 4.92991 -0.554235 -2.71202e-005 -4.22651e-007 -3.00631 8.03024 -4.95135 0.697618 -61.3094 2.22196 -0.971699 -109.345 20.1565 4.18943 2.35097e-005 2.03171e-006 8.05029e-007 -12.0931 9.00009 1.54511 -1.14e-005 2.0855e-006 3 -8.02976 -4.95144 -0.697647 178.27 -3.68046 2.78938 180 7.01522e-015 178.82 177.742 3.72578 179.761 3.99226e-006 -3.03929e-006 0.0413038 -18.7977 67.9812 19.519 8.13649 25.2327 -3.48774 -171.927 -1.20695 -3.67809 4.5067e-006 -1.99009e-005 -1.09987 -2.36843 -10.2075 0.0498179 -8.8353e-007 2.87672e-007 -0.212708 20.8451 70.3531 -21.7319 -8.13649 25.2327 3.48774 
57.7926 97.0024 25.6216 -1.86334 -4.14434 4.01248 -0.0846611 -0.550149 -0.57023 -0.169466 2.90345 -1.13145 -0.156072 4.54839 -1.1296 7.36033 -1.37862 0.221109 -2.58147 20.0994 1.53954 40.6462 -14.6646 -10.2732 61.8659 27.9469 39.2585 -3.18055e-015 -1.59028e-015 -0 -4.75915 4.59262 -0.589985 -2.71202e-005 -4.22651e-007 -3.00631 8.03024 -4.95135 0.697618 -61.2835 2.21227 -0.969828 -109.33 20.1565 4.14901 2.35097e-005 2.03171e-006 8.05029e-007 -12.073 8.92127 1.53423 -1.14e-005 2.0855e-006 3 -8.02976 -4.95144 -0.697647 178.271 -3.69148 2.79594 180 7.01522e-015 178.82 177.734 3.73183 179.762 3.99226e-006 -3.03929e-006 0.0412927 -18.7968 67.98 19.518 8.13649 25.2327 -3.48774 -171.921 -1.23671 -3.68527 4.5067e-006 -1.99009e-005 -1.10029 -2.37128 -10.2061 0.0495471 -8.8353e-007 2.87672e-007 -0.212934 20.8432 70.3513 -21.7298 -8.13649 25.2327 3.48774 
57.8083 97.0021 25.6072 -1.87116 -4.16008 3.9691 -0.0828365 -0.549129 -0.573523 -0.165866 2.90548 -1.13718 -0.152398 4.55042 -1.1354 7.32208 -1.29605 0.233471 -2.59469 20.1078 1.55311 40.8647 -14.6287 -10.2265 62.1506 27.85 38.7449 -1.59028e-015 -1.59028e-015 -0 -4.45322 4.26288 -0.622861 -2.71202e-005 -4.22651e-007 -3.00632 8.03024 -4.95135 0.697618 -61.2564 2.20028 -0.966797 -109.315 20.1587 4.11114 2.35097e-005 2.03171e-006 8.05029e-007 -12.0542 8.84076 1.52318 -1.14e-005 2.0855e-006 3 -8.02976 -4.95144 -0.697647 178.273 -3.70004 2.80151 180 7.01522e-015 178.82 177.726 3.73834 179.763 3.99226e-006 -3.03929e-006 0.0412816 -18.7959 67.9788 19.5169 8.13649 25.2327 -3.48774 -171.915 -1.26427 -3.69324 4.5067e-006 -1.99009e-005 -1.10073 -2.37448 -10.2042 0.0492373 -8.8353e-007 2.87672e-007 -0.213162 20.8404 70.3487 -21.7267 -8.13649 25.2327 3.48774 
57.799 97.0101 25.6235 -1.87979 -4.1742 3.92577 -0.0808657 -0.548357 -0.576859 -0.161982 2.90701 -1.14291 -0.148442 4.55195 -1.1412 7.2845 -1.21686 0.246219 -2.60981 20.119 1.56708 41.0857 -14.5919 -10.1793 62.4292 27.7474 38.2237 1.59028e-015 -6.36111e-015 -3.18055e-015 -4.13495 3.94211 -0.65305 -2.71202e-005 -4.22651e-007 -3.00632 8.03024 -4.95135 0.697618 -61.2281 2.18641 -0.962846 -109.3 20.1628 4.07547 2.35097e-005 2.03171e-006 8.05029e-007 -12.0365 8.75901 1.51203 -1.14e-005 2.0855e-006 3 -8.02976 -4.95144 -0.697647 178.276 -3.70654 2.80613 180 7.01522e-015 178.82 177.718 3.74518 179.764 3.99226e-006 -3.03929e-006 0.0412705 -18.7949 67.9775 19.5158 8.13649 25.2327 -3.48774 -171.908 -1.28986 -3.70187 4.5067e-006 -1.99009e-005 -1.10118 -2.37796 -10.2022 0.048894 -8.8353e-007 2.87672e-007 -0.213391 20.837 70.3456 -21.723 -8.13649 25.2327 3.48774 
57.7922 97.0061 25.6159 -1.88911 -4.18702 3.8825 -0.0787599 -0.547772 -0.580218 -0.157833 2.90816 -1.14861 -0.144219 4.5531 -1.14697 7.24779 -1.14064 0.259309 -2.62715 20.1325 1.58149 41.3091 -14.5545 -10.1314 62.7015 27.6391 37.6993 0 0 -6.36111e-015 -3.80848 3.63175 -0.680735 -2.71202e-005 -4.22651e-007 -3.00633 8.03024 -4.95135 0.697618 -61.1986 2.17105 -0.958214 -109.287 20.1682 4.0416 2.35097e-005 2.03171e-006 8.05029e-007 -12.0194 8.67648 1.50083 -1.14e-005 2.0855e-006 3 -8.02976 -4.95144 -0.697647 178.28 -3.71135 2.80986 180 7.01522e-015 178.82 177.71 3.75215 179.764 3.99226e-006 -3.03929e-006 0.0412594 -18.794 67.9763 19.5147 8.13649 25.2327 -3.48774 -171.9 -1.31368 -3.71109 4.5067e-006 -1.99009e-005 -1.10163 -2.38165 -10.2003 0.0485228 -8.8353e-007 2.87672e-007 -0.213619 20.8332 70.342 -21.7188 -8.13649 25.2327 3.48774 
57.7974 97.0042 25.6084 -1.89901 -4.19886 3.83929 -0.0765303 -0.547316 -0.583581 -0.153433 2.90906 -1.15428 -0.139746 4.55399 -1.15272 7.21219 -1.06699 0.272699 -2.64707 20.1477 1.59639 41.5345 -14.5164 -10.0832 62.9672 27.5256 37.1762 -3.18055e-015 0 9.54166e-015 -3.47796 3.33322 -0.706101 -2.71202e-005 -4.22651e-007 -3.00633 8.03024 -4.95135 0.697618 -61.1679 2.15462 -0.953139 -109.275 20.1746 4.00919 2.35097e-005 2.03171e-006 8.05029e-007 -12.0027 8.59363 1.48963 -1.14e-005 2.0855e-006 3 -8.02976 -4.95144 -0.697647 178.285 -3.71487 2.81274 180 7.01522e-015 178.82 177.703 3.75914 179.765 3.99226e-006 -3.03929e-006 0.0412484 -18.7931 67.9751 19.5137 8.13649 25.2327 -3.48774 -171.891 -1.33596 -3.72077 4.5067e-006 -1.99009e-005 -1.10208 -2.38547 -10.199 0.0481294 -8.8353e-007 2.87672e-007 -0.213845 20.829 70.3382 -21.7143 -8.13649 25.2327 3.48774 
57.8031 97.0055 25.6117 -1.90937 -4.21002 3.79617 -0.0741881 -0.546929 -0.586927 -0.1488 2.90981 -1.15991 -0.135039 4.55475 -1.15844 7.17789 -0.995499 0.286345 -2.6699 20.164 1.61181 41.7619 -14.4778 -10.0346 63.2265 27.4071 36.6589 3.18055e-015 1.59028e-015 1.27222e-014 -3.14753 3.04795 -0.729328 -2.71202e-005 -4.22651e-007 -3.00634 8.03024 -4.95135 0.697618 -61.1359 2.13752 -0.947862 -109.264 20.1814 3.97785 2.35097e-005 2.03171e-006 8.05029e-007 -11.9862 8.5109 1.4785 -1.14e-005 2.0855e-006 3 -8.02976 -4.95144 -0.697647 178.291 -3.7175 2.81484 180 7.01522e-015 178.82 177.696 3.76593 179.766 3.99226e-006 -3.03929e-006 0.0412373 -18.7923 67.974 19.5128 8.13649 25.2327 -3.48774 -171.881 -1.35692 -3.73083 4.5067e-006 -1.99009e-005 -1.10253 -2.38935 -10.1985 0.0477192 -8.8353e-007 2.87672e-007 -0.214069 20.8249 70.3343 -21.7098 -8.13649 25.2327 3.48774 
